<?xml version="1.0" standalone="no"?>
<!DOCTYPE svg PUBLIC "-//W3C//DTD SVG 20010904//EN"
 "http://www.w3.org/TR/2001/REC-SVG-20010904/DTD/svg10.dtd">
<svg version="1.0" xmlns="http://www.w3.org/2000/svg"
 width="2446.000000pt" height="2400.000000pt" viewBox="0 0 2446.000000 2400.000000"
 preserveAspectRatio="xMidYMid meet">

<g transform="translate(0.000000,2400.000000) scale(0.100000,-0.100000)"
fill="#000000" stroke="none">
<path d="M11080 22440 c0 -19 -7 -20 -250 -20 -243 0 -250 -1 -250 -20 0 -19
-7 -20 -165 -20 -154 0 -165 -1 -165 -19 0 -15 -11 -19 -61 -25 -34 -3 -91 -6
-125 -6 -47 0 -64 -4 -64 -14 0 -15 -80 -26 -186 -26 -57 0 -64 -2 -64 -20 0
-19 -7 -20 -125 -20 -118 0 -125 -1 -125 -20 0 -18 -7 -20 -80 -20 -73 0 -80
-2 -80 -20 0 -18 -7 -20 -85 -20 -78 0 -85 -2 -85 -20 0 -18 -7 -20 -85 -20
-84 0 -85 0 -85 -25 0 -24 -2 -25 -65 -25 -58 0 -65 -2 -65 -20 0 -18 -7 -20
-80 -20 -73 0 -80 -2 -80 -20 0 -18 -7 -20 -60 -20 -53 0 -60 -2 -60 -20 0
-17 -7 -20 -45 -20 -38 0 -45 -3 -45 -20 0 -18 -7 -20 -65 -20 -58 0 -65 -2
-65 -20 0 -18 -7 -20 -60 -20 -53 0 -60 -2 -60 -19 0 -12 8 -21 23 -24 12 -2
-6 -5 -40 -6 -47 -1 -63 -5 -63 -15 0 -8 10 -17 23 -19 12 -2 -17 -5 -65 -6
-81 -1 -88 -3 -88 -21 0 -17 -7 -20 -40 -20 -33 0 -40 -3 -40 -20 0 -13 -7
-20 -20 -20 -13 0 -20 -7 -20 -20 0 -29 -37 -27 -43 3 l-4 22 -2 -22 c-1 -20
-7 -23 -41 -23 -33 0 -40 -3 -40 -20 0 -13 -7 -20 -20 -20 -15 0 -20 -7 -20
-25 0 -22 -4 -25 -40 -25 -33 0 -40 -3 -40 -20 0 -17 -7 -20 -40 -20 -33 0
-40 -3 -40 -20 0 -15 -7 -20 -25 -20 -18 0 -25 -5 -25 -20 0 -13 -7 -20 -20
-20 -18 0 -20 -7 -20 -60 l0 -60 40 0 c33 0 40 -3 40 -19 0 -12 -8 -21 -22
-24 -13 -2 -2 -5 25 -6 40 -1 47 -4 47 -21 0 -13 -7 -20 -19 -20 -15 0 -21
-10 -26 -40 -7 -39 -8 -40 -46 -40 -32 0 -39 -3 -39 -20 0 -13 -7 -20 -20 -20
-13 0 -20 -7 -20 -20 0 -13 -7 -20 -20 -20 -13 0 -20 -7 -20 -19 0 -16 -8 -21
-42 -24 -24 -2 13 -4 82 -4 69 0 115 2 103 4 -13 2 -23 11 -23 19 0 10 14 14
54 14 81 0 116 9 116 31 0 17 8 19 80 19 73 0 80 2 80 20 0 18 7 20 65 20 58
0 65 2 65 20 0 18 7 20 60 20 53 0 60 2 60 20 0 18 7 20 65 20 58 0 65 2 65
20 0 18 7 20 60 20 53 0 60 2 60 20 0 18 7 20 54 20 81 0 116 9 116 31 0 17 9
19 85 19 78 0 85 2 85 20 0 18 7 20 60 20 53 0 60 2 60 20 0 18 7 20 65 20 58
0 65 2 65 20 0 18 7 20 80 20 73 0 80 2 80 20 0 18 7 20 65 20 58 0 65 2 65
20 0 19 7 20 105 20 l105 0 0 25 c0 25 1 25 80 25 73 0 80 2 80 20 0 18 7 20
85 20 78 0 85 2 85 20 0 19 7 20 105 20 98 0 105 1 105 20 0 19 7 20 125 20
118 0 125 1 125 20 0 19 7 20 145 20 138 0 145 1 145 20 0 19 7 20 190 20
l190 0 0 25 0 25 725 0 725 0 0 -25 0 -25 190 0 c183 0 190 -1 190 -20 0 -19
7 -20 145 -20 138 0 145 -1 145 -20 0 -19 7 -20 125 -20 118 0 125 -1 125 -20
0 -19 7 -20 105 -20 98 0 105 -1 105 -20 0 -19 7 -20 105 -20 98 0 105 -1 105
-20 0 -18 7 -20 80 -20 79 0 80 0 80 -25 0 -25 1 -25 85 -25 78 0 85 -2 85
-20 0 -18 7 -20 65 -20 58 0 65 -2 65 -20 0 -18 7 -20 80 -20 73 0 80 -2 80
-20 0 -18 7 -20 65 -20 58 0 65 -2 65 -20 0 -18 7 -20 60 -20 53 0 60 -2 60
-20 0 -18 7 -20 65 -20 63 0 65 -1 65 -25 0 -22 4 -25 40 -25 33 0 40 -3 40
-20 0 -18 7 -20 65 -20 58 0 65 -2 65 -20 0 -18 7 -20 60 -20 53 0 60 -2 60
-20 0 -17 7 -20 40 -20 33 0 40 -3 40 -20 0 -17 7 -20 45 -20 38 0 45 -3 45
-20 0 -18 7 -20 60 -20 57 0 60 -1 60 -25 0 -23 4 -25 45 -25 38 0 45 -3 45
-20 0 -17 7 -20 40 -20 33 0 40 -3 40 -20 0 -17 7 -20 40 -20 33 0 40 -3 40
-20 0 -17 7 -20 45 -20 38 0 45 -3 45 -20 0 -17 7 -20 40 -20 33 0 40 -3 40
-20 0 -17 7 -20 40 -20 36 0 40 -2 40 -25 0 -23 4 -25 45 -25 38 0 45 -3 45
-20 0 -17 7 -20 40 -20 33 0 40 -3 40 -20 0 -17 7 -20 40 -20 33 0 40 -3 40
-20 0 -17 7 -20 45 -20 38 0 45 -3 45 -20 0 -13 7 -20 20 -20 13 0 20 -7 20
-20 0 -17 7 -20 40 -20 36 0 40 -2 40 -25 0 -22 4 -25 40 -25 33 0 40 -3 40
-20 0 -17 7 -20 45 -20 38 0 45 -3 45 -20 0 -13 7 -20 20 -20 13 0 20 -7 20
-20 0 -17 7 -20 40 -20 33 0 40 -3 40 -20 0 -17 7 -20 45 -20 38 0 45 -3 45
-20 0 -13 7 -20 20 -20 15 0 20 -7 20 -25 0 -22 4 -25 40 -25 33 0 40 -3 40
-20 0 -13 7 -20 20 -20 13 0 20 -7 20 -20 0 -17 7 -20 45 -20 38 0 45 -3 45
-20 0 -13 7 -20 20 -20 13 0 20 -7 20 -20 0 -13 7 -20 20 -20 13 0 20 -7 20
-20 0 -17 7 -20 40 -20 36 0 40 -2 40 -25 0 -18 5 -25 20 -25 13 0 20 -7 20
-20 0 -15 7 -20 25 -20 18 0 25 -5 25 -20 0 -17 7 -20 40 -20 33 0 40 -3 40
-20 0 -13 7 -20 20 -20 13 0 20 -7 20 -20 0 -13 7 -20 20 -20 13 0 20 -7 20
-20 0 -17 7 -20 45 -20 41 0 45 -2 45 -25 0 -18 5 -25 20 -25 13 0 20 -7 20
-20 0 -13 7 -20 20 -20 13 0 20 -7 20 -20 0 -13 7 -20 20 -20 13 0 20 -7 20
-20 0 -17 7 -20 40 -20 33 0 40 -3 40 -20 0 -15 7 -20 25 -20 18 0 25 -5 25
-20 0 -13 7 -20 20 -20 15 0 20 -7 20 -25 0 -18 5 -25 20 -25 13 0 20 -7 20
-20 0 -13 7 -20 20 -20 13 0 20 -7 20 -20 0 -13 7 -20 20 -20 13 0 20 -7 20
-20 0 -17 7 -20 45 -20 38 0 45 -3 45 -20 0 -13 7 -20 20 -20 13 0 20 -7 20
-20 0 -13 7 -20 20 -20 15 0 20 -7 20 -25 0 -18 5 -25 20 -25 13 0 20 -7 20
-20 0 -13 7 -20 20 -20 13 0 20 -7 20 -20 0 -13 7 -20 20 -20 13 0 20 -7 20
-20 0 -15 7 -20 25 -20 18 0 25 -5 25 -20 0 -13 7 -20 20 -20 13 0 20 -7 20
-20 0 -13 7 -20 20 -20 15 0 20 -7 20 -25 0 -18 5 -25 20 -25 13 0 20 -7 20
-20 0 -13 7 -20 20 -20 13 0 20 -7 20 -20 0 -13 7 -20 20 -20 13 0 20 -7 20
-20 0 -15 7 -20 25 -20 18 0 25 -5 25 -20 0 -13 7 -20 20 -20 13 0 20 -7 20
-20 0 -13 7 -20 20 -20 15 0 20 -7 20 -25 0 -18 5 -25 20 -25 13 0 20 -7 20
-20 0 -13 7 -20 20 -20 13 0 20 -7 20 -20 0 -13 7 -20 20 -20 17 0 20 -7 20
-40 0 -36 3 -40 25 -40 18 0 25 -5 25 -20 0 -13 7 -20 20 -20 15 0 20 -7 20
-25 0 -18 5 -25 20 -25 13 0 20 -7 20 -20 0 -13 7 -20 20 -20 13 0 20 -7 20
-20 0 -13 7 -20 20 -20 13 0 20 -7 20 -20 0 -13 7 -20 20 -20 17 0 20 -7 20
-40 0 -36 3 -40 25 -40 20 0 25 -5 25 -25 0 -18 5 -25 20 -25 13 0 20 -7 20
-20 0 -13 7 -20 20 -20 13 0 20 -7 20 -20 0 -13 7 -20 20 -20 17 0 20 -7 20
-40 0 -33 3 -40 20 -40 13 0 20 -7 20 -20 0 -13 7 -20 20 -20 15 0 20 -7 20
-25 0 -20 5 -25 25 -25 23 0 25 -4 25 -40 0 -33 3 -40 20 -40 13 0 20 -7 20
-20 0 -13 7 -20 20 -20 13 0 20 -7 20 -20 0 -13 7 -20 20 -20 17 0 20 -7 20
-45 0 -38 3 -45 20 -45 13 0 20 -7 20 -20 0 -13 7 -20 20 -20 13 0 20 -7 20
-20 0 -15 7 -20 25 -20 23 0 25 -4 25 -40 0 -33 3 -40 20 -40 13 0 20 -7 20
-20 0 -13 7 -20 20 -20 17 0 20 -7 20 -45 0 -38 3 -45 20 -45 13 0 20 -7 20
-20 0 -13 7 -20 20 -20 17 0 20 -7 20 -40 0 -33 3 -40 20 -40 13 0 20 -7 20
-20 0 -15 7 -20 25 -20 23 0 25 -4 25 -45 0 -38 3 -45 20 -45 17 0 20 -7 20
-40 0 -33 3 -40 20 -40 13 0 20 -7 20 -20 0 -13 7 -20 20 -20 17 0 20 -7 20
-45 0 -38 3 -45 20 -45 17 0 20 -7 20 -40 0 -33 3 -40 20 -40 17 0 20 -7 20
-40 0 -36 3 -40 25 -40 18 0 25 -5 25 -20 0 -13 7 -20 20 -20 17 0 20 -7 20
-45 0 -38 3 -45 20 -45 17 0 20 -7 20 -40 0 -33 3 -40 20 -40 17 0 20 -7 20
-40 0 -33 3 -40 20 -40 17 0 20 -7 20 -45 0 -38 3 -45 20 -45 17 0 20 -7 20
-40 0 -36 3 -40 25 -40 23 0 25 -4 25 -40 0 -33 3 -40 20 -40 17 0 20 -7 20
-45 0 -38 3 -45 20 -45 17 0 20 -7 20 -40 0 -33 3 -40 20 -40 18 0 20 -7 20
-65 0 -58 2 -65 20 -65 17 0 20 -7 20 -40 0 -33 3 -40 20 -40 17 0 20 -7 20
-40 0 -36 3 -40 25 -40 24 0 25 -2 25 -65 0 -58 2 -65 20 -65 17 0 20 -7 20
-40 0 -33 3 -40 20 -40 18 0 20 -7 20 -65 0 -58 2 -65 20 -65 17 0 20 -7 20
-40 0 -33 3 -40 20 -40 18 0 20 -7 20 -60 0 -53 2 -60 20 -60 18 0 20 -7 20
-65 0 -63 1 -65 25 -65 24 0 25 -3 25 -60 0 -53 2 -60 20 -60 17 0 20 -7 20
-45 0 -38 3 -45 20 -45 18 0 20 -7 20 -80 0 -73 2 -80 20 -80 18 0 20 -7 20
-65 0 -58 2 -65 20 -65 18 0 20 -7 20 -60 0 -53 2 -60 20 -60 18 0 20 -7 20
-65 0 -63 1 -65 25 -65 24 0 25 -3 25 -60 0 -53 2 -60 20 -60 18 0 20 -7 20
-85 0 -78 2 -85 20 -85 17 0 20 -7 20 -40 0 -33 3 -40 20 -40 18 0 20 -7 20
-85 0 -78 2 -85 20 -85 18 0 20 -7 20 -64 0 -59 2 -64 20 -59 18 5 20 0 20
-41 0 -42 2 -46 25 -46 23 0 25 -4 25 -40 0 -33 3 -40 20 -40 13 0 20 -7 20
-20 0 -13 7 -20 20 -20 18 0 20 7 20 60 l0 60 40 0 c33 0 40 -3 40 -20 0 -17
7 -20 45 -20 38 0 45 -3 45 -20 0 -13 7 -20 20 -20 18 0 20 -7 20 -66 l0 -66
31 6 c17 3 35 6 40 6 5 0 9 113 9 250 0 243 -1 250 -20 250 -19 0 -20 7 -20
165 0 158 -1 165 -20 165 -19 0 -20 7 -20 100 0 93 -1 100 -20 100 -18 0 -20
7 -20 85 0 84 0 85 -25 85 -25 0 -25 1 -25 85 0 78 -2 85 -20 85 -18 0 -20 7
-20 80 0 73 -2 80 -20 80 -18 0 -20 7 -20 65 0 58 -2 65 -20 65 -18 0 -20 7
-20 60 0 53 -2 60 -20 60 -18 0 -20 7 -20 65 0 58 -2 65 -20 65 -18 0 -20 7
-20 60 0 57 -1 60 -25 60 -24 0 -25 2 -25 65 0 50 -3 65 -14 65 -8 0 -17 -10
-19 -22 -2 -13 -5 7 -6 45 -1 60 -3 67 -21 67 -18 0 -20 7 -20 60 0 53 -2 60
-20 60 -18 0 -20 7 -20 60 0 53 -2 60 -20 60 -17 0 -20 7 -20 45 0 38 -3 45
-20 45 -17 0 -20 7 -20 40 0 36 -2 40 -25 40 -24 0 -25 3 -25 60 0 53 -2 60
-20 60 -17 0 -20 7 -20 45 0 38 -3 45 -20 45 -17 0 -20 7 -20 40 0 33 -3 40
-20 40 -17 0 -20 7 -20 45 0 38 -3 45 -20 45 -17 0 -20 7 -20 40 0 33 -3 40
-20 40 -18 0 -20 7 -20 60 0 57 -1 60 -25 60 -20 0 -25 5 -25 25 0 18 -5 25
-20 25 -17 0 -20 7 -20 40 0 33 -3 40 -20 40 -17 0 -20 7 -20 40 0 33 -3 40
-20 40 -17 0 -20 7 -20 40 0 33 -3 40 -20 40 -17 0 -20 7 -20 45 0 38 -3 45
-20 45 -17 0 -20 7 -20 40 0 36 -2 40 -25 40 -20 0 -25 5 -25 25 0 18 -5 25
-20 25 -17 0 -20 7 -20 40 0 33 -3 40 -20 40 -17 0 -20 7 -20 40 0 33 -3 40
-20 40 -17 0 -20 7 -20 40 0 33 -3 40 -20 40 -13 0 -20 7 -20 20 0 13 -7 20
-20 20 -17 0 -20 7 -20 45 0 41 -2 45 -25 45 -22 0 -25 4 -25 40 0 44 -25 58
-33 18 -2 -13 -5 -4 -6 20 -1 35 -4 42 -21 42 -17 0 -20 7 -20 45 0 38 -3 45
-20 45 -13 0 -20 7 -20 20 0 13 -7 20 -20 20 -17 0 -20 7 -20 40 0 33 -3 40
-20 40 -13 0 -20 7 -20 20 0 15 -7 20 -25 20 -23 0 -25 4 -25 45 0 51 -26 65
-33 18 -2 -17 -5 -10 -6 20 -1 40 -4 47 -21 47 -13 0 -20 7 -20 20 0 13 -7 20
-20 20 -17 0 -20 7 -20 40 0 33 -3 40 -20 40 -13 0 -20 7 -20 20 0 13 -7 20
-20 20 -15 0 -20 7 -20 25 0 20 -5 25 -25 25 -22 0 -25 4 -25 40 0 33 -3 40
-20 40 -13 0 -20 7 -20 20 0 13 -7 20 -20 20 -13 0 -20 7 -20 20 0 13 -7 20
-20 20 -17 0 -20 7 -20 45 0 38 -3 45 -20 45 -13 0 -20 7 -20 20 0 13 -7 20
-20 20 -13 0 -20 7 -20 20 0 15 -7 20 -25 20 -22 0 -25 4 -25 40 0 44 -25 58
-33 18 -2 -13 -5 -4 -6 20 -1 35 -4 42 -21 42 -15 0 -20 7 -20 25 0 18 -5 25
-20 25 -13 0 -20 7 -20 20 0 13 -7 20 -20 20 -13 0 -20 7 -20 20 0 13 -7 20
-20 20 -13 0 -20 7 -20 20 0 15 -7 20 -25 20 -18 0 -25 5 -25 20 0 13 -7 20
-20 20 -13 0 -20 7 -20 19 0 12 -8 21 -22 24 l-23 4 23 2 c29 1 32 41 2 41
-13 0 -20 7 -20 20 0 13 -7 20 -20 20 -13 0 -20 7 -20 20 0 13 -7 20 -20 20
-13 0 -20 7 -20 20 0 13 -7 20 -20 20 -13 0 -20 7 -20 20 0 15 -7 20 -25 20
-18 0 -25 5 -25 20 0 13 -7 20 -20 20 -15 0 -20 7 -20 25 0 18 -5 25 -20 25
-13 0 -20 7 -20 20 0 13 -7 20 -20 20 -13 0 -20 7 -20 20 0 13 -7 20 -20 20
-13 0 -20 7 -20 20 0 13 -7 20 -20 20 -13 0 -20 7 -20 20 0 15 -7 20 -25 20
-18 0 -25 5 -25 20 0 13 -7 20 -20 20 -15 0 -20 7 -20 25 0 18 -5 25 -20 25
-13 0 -20 7 -20 20 0 13 -7 20 -20 20 -13 0 -20 7 -20 20 0 13 -7 20 -20 20
-13 0 -20 7 -20 20 0 13 -7 20 -20 20 -13 0 -20 7 -20 20 0 15 -7 20 -25 20
-18 0 -25 5 -25 20 0 13 -7 20 -20 20 -15 0 -20 7 -20 25 0 18 -5 25 -20 25
-13 0 -20 7 -20 20 0 13 -7 20 -20 20 -13 0 -20 7 -20 20 0 13 -7 20 -20 20
-13 0 -20 7 -20 20 0 17 -7 20 -45 20 -38 0 -45 3 -45 20 0 13 -7 20 -20 20
-13 0 -20 7 -20 20 0 13 -7 20 -20 20 -15 0 -20 7 -20 25 0 18 -5 25 -20 25
-13 0 -20 7 -20 20 0 13 -7 20 -20 20 -13 0 -20 7 -20 20 0 17 -7 20 -45 20
-38 0 -45 3 -45 20 0 13 -7 20 -20 20 -13 0 -20 7 -20 20 0 13 -7 20 -20 20
-13 0 -20 7 -20 20 0 13 -7 20 -20 20 -15 0 -20 7 -20 25 0 23 -4 25 -40 25
-33 0 -40 3 -40 20 0 15 -7 20 -25 20 -18 0 -25 5 -25 20 0 17 -7 20 -40 20
-33 0 -40 3 -40 20 0 13 -7 20 -20 20 -13 0 -20 7 -20 20 0 13 -7 20 -20 20
-13 0 -20 7 -20 19 0 16 -8 20 -42 23 -36 2 -44 7 -46 26 -2 14 -10 22 -23 22
-12 0 -19 7 -19 20 0 13 -7 20 -20 20 -13 0 -20 7 -20 20 0 17 -7 20 -40 20
-33 0 -40 3 -40 20 0 13 -7 20 -20 20 -13 0 -20 7 -20 20 0 17 -7 20 -41 20
-32 0 -42 4 -46 20 -3 11 -14 20 -24 20 -14 0 -19 7 -19 25 0 23 -4 25 -40 25
-33 0 -40 3 -40 20 0 13 -7 20 -20 20 -13 0 -20 7 -20 20 0 29 -37 27 -43 -2
l-4 -23 -2 23 c-1 15 -7 22 -21 22 -13 0 -20 7 -20 20 0 17 -7 20 -40 20 -33
0 -40 3 -40 20 0 13 -7 20 -20 20 -13 0 -20 7 -20 19 0 16 -8 20 -42 23 -36 2
-44 7 -46 26 -3 18 -10 22 -43 22 -32 0 -39 3 -39 20 0 13 -7 20 -20 20 -13 0
-20 7 -20 20 0 17 -7 20 -40 20 -33 0 -40 3 -40 20 0 17 -7 20 -45 20 -38 0
-45 3 -45 19 0 15 -10 21 -40 26 -23 4 -40 12 -40 20 0 8 -17 16 -40 20 -30 5
-40 11 -40 26 0 14 -7 19 -25 19 -18 0 -25 5 -25 20 0 17 -7 20 -40 20 -33 0
-40 3 -40 20 0 17 -7 20 -40 20 -33 0 -40 3 -40 20 0 18 -7 20 -60 20 -52 0
-60 2 -60 19 0 15 -10 20 -45 25 -29 5 -45 12 -45 22 0 10 -12 14 -40 14 -36
0 -40 3 -40 25 0 23 -4 25 -45 25 -38 0 -45 3 -45 20 0 18 -7 20 -60 20 -53 0
-60 2 -60 20 0 17 -7 20 -45 20 -38 0 -45 3 -45 20 0 18 -7 20 -60 20 -53 0
-60 2 -60 20 0 17 -7 20 -40 20 -33 0 -40 3 -40 20 0 18 -7 20 -65 20 -63 0
-65 1 -65 25 0 23 -4 25 -40 25 -33 0 -40 3 -40 20 0 18 -7 20 -65 20 -58 0
-65 2 -65 20 0 18 -7 20 -60 20 -53 0 -60 2 -60 20 0 18 -7 20 -65 20 -58 0
-65 2 -65 20 0 18 -7 20 -80 20 -73 0 -80 2 -80 20 0 18 -7 20 -87 21 -49 1
-78 4 -65 6 14 3 22 12 22 24 0 17 -8 19 -85 19 -78 0 -85 2 -85 20 0 18 -7
20 -80 20 -73 0 -80 2 -80 20 0 18 -7 20 -85 20 -78 0 -85 2 -85 20 0 19 -7
20 -125 20 -118 0 -125 1 -125 20 0 18 -7 20 -64 20 -106 0 -186 11 -186 26 0
10 -17 14 -64 14 -34 0 -91 3 -125 6 -50 6 -61 10 -61 25 0 18 -10 19 -145 19
-138 0 -145 1 -145 20 0 19 -7 20 -250 20 -243 0 -250 1 -250 20 0 20 -7 20
-585 20 -578 0 -585 0 -585 -20z"/>
<path d="M19090 19065 c0 -8 7 -15 15 -15 8 0 15 7 15 15 0 8 -7 15 -15 15 -8
0 -15 -7 -15 -15z"/>
<path d="M3733 18333 c-15 -3 -23 -12 -23 -24 0 -12 -7 -19 -20 -19 -13 0 -20
-7 -20 -20 0 -29 -37 -27 -43 3 -2 12 -5 3 -6 -20 -1 -36 -4 -43 -21 -43 -13
0 -20 -7 -20 -20 0 -13 -7 -20 -20 -20 -13 0 -20 -7 -20 -20 0 -13 -7 -20 -20
-20 -15 0 -20 -7 -20 -25 0 -18 -5 -25 -20 -25 -13 0 -20 -7 -20 -20 0 -13 -7
-20 -20 -20 -17 0 -20 -7 -20 -40 0 -36 -2 -40 -25 -40 -18 0 -25 -5 -25 -20
0 -13 -7 -20 -20 -20 -17 0 -20 -7 -20 -45 0 -38 -3 -45 -20 -45 -13 0 -20 -7
-20 -20 0 -13 -7 -20 -20 -20 -13 0 -20 -7 -20 -20 0 -13 -7 -20 -20 -20 -17
0 -20 -7 -20 -40 0 -33 -3 -40 -20 -40 -13 0 -20 -7 -20 -20 0 -15 -7 -20 -25
-20 -20 0 -25 -5 -25 -25 0 -18 -5 -25 -20 -25 -27 0 -25 -28 3 -33 l22 -4
-22 -2 c-16 -1 -23 -7 -23 -21 0 -13 -7 -20 -20 -20 -17 0 -20 -7 -20 -40 0
-33 -3 -40 -20 -40 -13 0 -20 -7 -20 -20 0 -13 -7 -20 -20 -20 -29 0 -27 -37
3 -43 l22 -4 -22 -2 c-16 -1 -23 -7 -23 -21 0 -13 -7 -20 -20 -20 -13 0 -20
-7 -20 -20 0 -15 -7 -20 -25 -20 -22 0 -25 -4 -25 -40 0 -33 -3 -40 -20 -40
-17 0 -20 -7 -20 -45 0 -38 -3 -45 -20 -45 -17 0 -20 -7 -20 -40 0 -33 -3 -40
-20 -40 -17 0 -20 -7 -20 -40 0 -33 -3 -40 -20 -40 -17 0 -20 -7 -20 -45 0
-38 -3 -45 -20 -45 -17 0 -20 -7 -20 -40 0 -36 -2 -40 -25 -40 -22 0 -25 -4
-25 -40 0 -33 -3 -40 -20 -40 -17 0 -20 -7 -20 -45 0 -38 -3 -45 -20 -45 -17
0 -20 -7 -20 -40 0 -33 -3 -40 -20 -40 -17 0 -20 -7 -20 -40 0 -33 -3 -40 -20
-40 -18 0 -20 -7 -20 -60 0 -53 -2 -60 -20 -60 -17 0 -20 -7 -20 -45 0 -41 -2
-45 -25 -45 -22 0 -25 -4 -25 -40 0 -33 -3 -40 -20 -40 -18 0 -20 -7 -20 -65
0 -58 -2 -65 -20 -65 -17 0 -20 -7 -20 -40 0 -33 -3 -40 -20 -40 -18 0 -20 -7
-20 -65 0 -58 -2 -65 -20 -65 -18 0 -20 -7 -20 -60 0 -53 -2 -60 -20 -60 -18
0 -20 -7 -20 -59 0 -54 -2 -60 -22 -63 -21 -3 -23 -9 -26 -65 -3 -55 -6 -63
-22 -63 -18 0 -20 -7 -20 -60 0 -53 -2 -60 -20 -60 -18 0 -20 -7 -20 -65 0
-58 -2 -65 -20 -65 -18 0 -20 -7 -20 -65 0 -58 -2 -65 -20 -65 -18 0 -20 -7
-20 -60 0 -53 -2 -60 -20 -60 -18 0 -20 -7 -20 -85 0 -84 0 -85 -25 -85 -25 0
-25 -1 -25 -85 0 -78 -2 -85 -20 -85 -18 0 -20 -7 -20 -80 0 -73 -2 -80 -20
-80 -19 0 -20 -7 -20 -105 0 -98 -1 -105 -20 -105 -19 0 -20 -7 -20 -105 0
-98 -1 -105 -20 -105 -19 0 -20 -7 -20 -105 0 -98 -1 -105 -20 -105 -19 0 -20
-7 -20 -145 l0 -145 -25 0 -25 0 0 -165 c0 -158 -1 -165 -20 -165 -19 0 -20
-7 -20 -250 0 -243 -1 -250 -20 -250 -20 0 -20 -7 -20 -670 0 -663 0 -670 20
-670 19 0 20 -7 20 -250 0 -243 1 -250 20 -250 19 0 20 -7 20 -165 l0 -165 25
0 25 0 0 -145 c0 -138 1 -145 20 -145 19 0 20 -7 20 -105 0 -98 1 -105 20
-105 19 0 20 -7 20 -105 0 -98 1 -105 20 -105 19 0 20 -7 20 -105 0 -98 1
-105 20 -105 18 0 20 -7 20 -80 0 -73 2 -80 20 -80 18 0 20 -7 20 -85 0 -84 0
-85 25 -85 25 0 25 -1 25 -85 0 -78 2 -85 20 -85 18 0 20 -7 20 -60 0 -53 2
-60 20 -60 18 0 20 -7 20 -85 0 -78 2 -85 20 -85 18 0 20 -7 20 -60 0 -53 2
-60 20 -60 18 0 20 -7 20 -65 0 -58 2 -65 20 -65 18 0 20 -7 20 -60 0 -57 1
-60 25 -60 24 0 25 -2 25 -65 0 -58 2 -65 20 -65 17 0 20 -7 20 -40 0 -33 3
-40 20 -40 18 0 20 -7 20 -65 0 -58 2 -65 20 -65 17 0 20 -7 20 -40 0 -33 3
-40 20 -40 18 0 20 -7 20 -60 0 -53 2 -60 20 -60 17 0 20 -7 20 -45 0 -41 2
-45 25 -45 24 0 25 -3 25 -60 0 -53 2 -60 20 -60 17 0 20 -7 20 -45 0 -38 3
-45 20 -45 17 0 20 -7 20 -40 0 -33 3 -40 20 -40 17 0 20 -7 20 -40 0 -33 3
-40 20 -40 17 0 20 -7 20 -45 0 -38 3 -45 20 -45 17 0 20 -7 20 -40 0 -36 3
-40 25 -40 23 0 25 -4 25 -40 0 -33 3 -40 20 -40 17 0 20 -7 20 -45 0 -38 3
-45 20 -45 17 0 20 -7 20 -40 0 -33 3 -40 20 -40 17 0 20 -7 20 -40 0 -33 3
-40 20 -40 17 0 20 -7 20 -45 0 -38 3 -45 20 -45 17 0 20 -7 20 -40 0 -36 3
-40 25 -40 23 0 25 -4 25 -40 0 -33 3 -40 20 -40 13 0 20 -7 20 -20 0 -13 7
-20 20 -20 15 0 20 -7 20 -25 0 -18 5 -25 20 -25 17 0 20 -7 20 -40 0 -33 3
-40 20 -40 13 0 20 -7 20 -20 0 -13 7 -20 20 -20 17 0 20 -7 20 -40 0 -36 3
-40 25 -40 20 0 25 -5 25 -25 0 -18 5 -25 20 -25 17 0 20 -7 20 -40 0 -33 3
-40 20 -40 13 0 20 -7 20 -20 0 -13 7 -20 20 -20 17 0 20 -7 20 -40 0 -33 3
-40 20 -40 15 0 20 -7 20 -25 0 -18 5 -25 20 -25 17 0 20 -7 21 -42 1 -24 4
-33 6 -20 3 14 12 22 24 22 16 0 19 -7 19 -40 0 -33 3 -40 20 -40 13 0 20 -7
20 -20 0 -13 7 -20 20 -20 13 0 20 -7 20 -20 0 -17 7 -20 40 -20 33 0 40 -3
40 -19 0 -12 -8 -21 -22 -24 l-23 -4 23 -2 c15 -1 22 -7 22 -21 0 -13 7 -20
19 -20 16 0 21 -8 24 -43 l4 -42 1 43 c2 35 5 42 22 42 17 0 20 -7 20 -40 0
-33 3 -40 20 -40 13 0 20 -7 20 -20 0 -13 7 -20 20 -20 13 0 20 -7 20 -20 0
-13 7 -20 20 -20 15 0 20 -7 20 -25 0 -20 5 -25 24 -25 19 0 22 4 18 25 -3 16
-11 25 -23 25 -12 0 -19 7 -19 20 0 13 -7 20 -20 20 -18 0 -20 7 -20 65 0 58
-2 65 -20 65 -17 0 -20 7 -20 40 0 33 -3 40 -20 40 -18 0 -20 7 -20 60 0 53
-2 60 -20 60 -19 0 -20 7 -20 125 0 118 1 125 20 125 13 0 20 -7 20 -20 0 -17
7 -20 40 -20 l40 0 0 40 c0 33 -3 40 -20 40 -13 0 -20 7 -20 19 0 12 -8 21
-22 24 l-23 4 23 2 c29 1 32 41 2 41 -17 0 -20 7 -20 40 0 33 -3 40 -19 40
-15 0 -21 10 -26 40 -5 30 -11 40 -26 40 -16 0 -19 7 -19 45 0 38 -3 45 -20
45 -17 0 -20 7 -20 40 0 33 -3 40 -20 40 -17 0 -20 7 -20 39 0 33 -4 40 -22
44 l-23 4 23 2 c27 1 30 31 2 31 -15 0 -20 7 -20 25 0 18 -5 25 -20 25 -17 0
-20 7 -20 40 0 33 -3 40 -19 40 -16 0 -21 10 -27 46 -5 38 -10 45 -25 41 -16
-4 -19 1 -19 39 0 37 -3 44 -20 44 -17 0 -20 7 -20 40 0 33 -3 40 -20 40 -17
0 -20 7 -20 40 0 33 -3 40 -20 40 -18 0 -20 7 -20 65 0 58 -2 65 -20 65 -17 0
-20 7 -20 40 0 36 -2 40 -25 40 -22 0 -25 4 -25 40 0 33 -3 40 -20 40 -18 0
-20 7 -20 65 0 58 -2 65 -20 65 -17 0 -20 7 -20 40 0 33 -3 40 -20 40 -17 0
-20 7 -20 45 0 38 -3 45 -20 45 -18 0 -20 7 -20 60 0 53 -2 60 -20 60 -17 0
-20 7 -20 40 0 36 -2 40 -25 40 -24 0 -25 2 -25 65 0 58 -2 65 -20 65 -17 0
-20 7 -20 40 0 33 -3 40 -20 40 -18 0 -20 7 -20 65 0 58 -2 65 -20 65 -17 0
-20 7 -20 40 0 33 -3 40 -20 40 -18 0 -20 7 -20 65 0 58 -2 65 -20 65 -18 0
-20 7 -20 60 0 57 -1 60 -25 60 -24 0 -25 2 -25 65 0 58 -2 65 -20 65 -18 0
-20 7 -20 60 0 53 -2 60 -20 60 -18 0 -20 7 -20 65 0 58 -2 65 -20 65 -18 0
-20 7 -20 80 0 73 -2 80 -20 80 -18 0 -20 7 -20 85 0 78 -2 85 -20 85 -18 0
-20 7 -20 85 0 84 0 85 -25 85 -25 0 -25 1 -25 80 0 61 -3 80 -14 80 -18 0
-26 44 -26 136 0 67 -2 74 -20 74 -19 0 -20 7 -20 105 0 98 -1 105 -20 105
-19 0 -20 7 -20 125 0 118 -1 125 -20 125 -19 0 -20 7 -20 145 0 138 -1 145
-20 145 -19 0 -20 7 -20 210 0 199 -1 210 -19 210 -13 0 -20 10 -25 31 -8 41
-8 1557 0 1598 5 21 12 31 25 31 18 0 19 11 19 190 0 183 1 190 20 190 19 0
20 7 20 145 0 138 1 145 20 145 19 0 20 7 20 145 0 138 1 145 20 145 19 0 20
7 20 105 0 98 1 105 20 105 19 0 20 7 20 105 0 98 1 105 20 105 18 0 20 7 20
85 0 84 0 85 25 85 25 0 25 1 25 80 0 73 2 80 20 80 18 0 20 7 20 85 0 78 2
85 20 85 18 0 20 7 20 60 0 53 2 60 20 60 18 0 20 7 20 85 0 78 2 85 20 85 18
0 20 7 20 65 0 58 2 65 20 65 18 0 20 7 20 60 0 57 1 60 25 60 24 0 25 2 25
65 0 58 2 65 20 65 17 0 20 7 20 40 0 33 3 40 20 40 18 0 20 7 20 60 0 53 2
60 20 60 18 0 20 7 20 65 0 58 2 65 20 65 17 0 20 7 20 40 0 33 3 40 20 40 17
0 20 7 20 45 0 41 2 45 25 45 24 0 25 3 25 60 0 53 2 60 20 60 18 0 20 7 20
65 0 58 2 65 20 65 17 0 20 7 20 40 0 33 3 40 20 40 17 0 20 7 20 40 0 33 3
40 20 40 17 0 20 7 20 45 0 38 3 45 20 45 15 0 20 7 20 29 0 57 12 91 31 91
15 0 19 8 19 40 0 33 3 40 20 40 17 0 20 7 20 45 0 38 3 45 20 45 17 0 20 7
20 40 0 33 3 40 20 40 17 0 20 7 20 40 0 33 3 40 20 40 17 0 20 7 20 45 0 38
3 45 20 45 17 0 20 7 20 40 0 36 3 40 25 40 23 0 25 4 25 40 0 33 3 40 20 40
17 0 20 7 20 45 0 38 3 45 20 45 17 0 20 7 20 40 0 33 3 40 20 40 17 0 20 7
20 40 0 33 3 40 20 40 17 0 20 7 20 45 0 38 3 45 19 45 15 0 21 10 26 40 5 30
11 40 26 40 12 0 19 7 19 20 0 13 7 20 20 20 17 0 20 7 20 45 0 38 3 45 20 45
17 0 20 7 20 40 0 33 3 40 20 40 13 0 20 7 20 20 0 13 7 20 20 20 17 0 20 7
21 43 1 23 0 52 -1 65 -1 16 4 22 18 22 16 0 22 9 27 40 5 30 11 40 26 40 16
0 19 7 19 40 0 33 3 40 20 40 13 0 20 7 20 19 0 12 8 21 23 24 l22 4 -22 2
c-30 1 -33 41 -3 41 13 0 20 7 20 20 0 13 -7 20 -20 20 -13 0 -20 -7 -20 -20
0 -13 -7 -20 -20 -20 -13 0 -20 -7 -20 -20 0 -13 -7 -20 -20 -20 -13 0 -20 -7
-20 -20 0 -13 -7 -20 -19 -20 -14 0 -21 -8 -24 -27 l-4 -28 -2 28 c-1 20 -6
27 -21 27 -17 0 -20 -7 -20 -45 0 -38 -3 -45 -20 -45 -19 0 -20 7 -20 145 0
138 1 145 20 145 17 0 20 7 20 45 0 48 -2 49 -57 38z m144 -325 c-3 -7 -5 -2
-5 12 0 14 2 19 5 13 2 -7 2 -19 0 -25z m-127 -68 c0 -13 -7 -20 -20 -20 -13
0 -20 7 -20 20 0 13 7 20 20 20 13 0 20 -7 20 -20z m87 -12 c-3 -7 -5 -2 -5
12 0 14 2 19 5 13 2 -7 2 -19 0 -25z"/>
<path d="M11155 16800 c-142 -26 -313 -81 -421 -136 -48 -24 -88 -44 -90 -44
-2 0 -5 39 -6 88 l-3 87 -1025 -3 c-564 -1 -1178 -5 -1366 -9 l-340 -6 -254
-393 -254 -393 -62 102 c-35 56 -143 233 -242 392 l-178 290 -150 3 c-82 2
-321 0 -531 -3 l-383 -7 0 -1754 0 -1754 665 0 665 0 0 390 0 390 215 0 215 0
0 -390 0 -390 1520 0 1520 0 0 65 c0 36 4 65 9 65 5 0 83 -28 173 -62 234 -88
284 -99 478 -105 137 -4 179 -2 250 13 77 17 156 19 865 24 l779 5 130 363
129 362 76 0 76 0 139 -365 140 -365 719 0 c611 0 718 2 714 14 -24 63 -787
2124 -924 2496 -96 261 -222 602 -280 758 l-106 282 -476 0 -476 0 -124 -323
c-69 -177 -126 -325 -128 -330 -3 -4 -50 35 -106 88 -321 298 -631 470 -986
546 -146 31 -420 35 -566 9z m3013 -1743 c260 -705 472 -1285 472 -1290 0 -4
-81 -7 -179 -7 l-180 0 -19 53 c-11 28 -74 196 -141 371 -67 175 -121 320
-121 322 0 2 -191 4 -424 4 l-424 0 -52 -132 c-28 -73 -92 -242 -142 -375
l-91 -243 -183 0 -183 0 13 38 c8 20 219 595 470 1277 251 682 458 1246 461
1253 3 9 38 12 128 12 l123 0 472 -1283z m-2490 1237 c300 -61 549 -218 701
-442 79 -118 159 -306 177 -422 l7 -40 -180 0 -180 0 -22 68 c-76 231 -257
395 -512 464 -110 29 -319 32 -419 5 -152 -40 -325 -152 -415 -266 -146 -186
-209 -378 -209 -636 0 -148 9 -211 51 -340 89 -280 306 -496 570 -566 109 -29
287 -29 398 0 155 41 294 126 391 241 50 59 126 184 139 228 l6 22 -435 0
-436 0 0 185 0 185 636 0 636 0 -7 -82 c-19 -231 -52 -372 -116 -501 -217
-430 -700 -703 -1144 -648 -430 53 -765 314 -931 726 -100 249 -128 567 -75
843 105 543 491 927 996 992 92 12 277 4 373 -16z m-4638 -611 c337 -535 387
-610 398 -595 7 9 183 286 390 615 l377 597 137 0 138 0 0 -1270 0 -1270 -170
0 -170 0 -2 891 -3 891 -305 -488 -306 -489 -96 -3 -96 -3 -309 493 -308 493
-3 -892 -2 -893 -170 0 -170 0 0 1270 0 1271 142 -3 142 -3 386 -612z m3130
432 l0 -185 -545 0 -545 0 0 -355 0 -355 533 -2 532 -3 3 -182 2 -183 -535 0
-535 0 0 -360 0 -360 545 0 545 0 0 -185 0 -185 -720 0 -720 0 0 1270 0 1270
720 0 720 0 0 -185z m1406 -496 c93 -35 172 -127 189 -221 l7 -38 -331 0
c-374 0 -346 -7 -315 83 55 162 265 244 450 176z"/>
<path d="M13431 15308 c-79 -238 -146 -439 -148 -445 -4 -10 57 -13 286 -13
216 0 291 3 291 12 0 13 -268 847 -279 866 -4 7 -71 -182 -150 -420z"/>
<path d="M8690 13143 c-287 -28 -500 -82 -740 -185 -273 -117 -514 -278 -741
-496 -95 -90 -97 -92 -102 -65 -3 16 -61 141 -128 278 -135 274 -168 321 -262
369 -30 15 -83 31 -118 37 -40 6 -596 9 -1509 7 l-1445 -3 -57 -23 c-81 -33
-160 -108 -200 -190 l-33 -67 -3 -350 c-4 -378 0 -423 46 -508 35 -66 119
-140 190 -169 l57 -23 798 -5 798 -5 -152 -220 c-83 -121 -231 -337 -327 -480
-96 -143 -246 -363 -332 -490 -847 -1243 -1219 -1797 -1233 -1832 -37 -94 -31
-205 14 -295 40 -79 283 -425 330 -470 28 -26 73 -56 106 -70 l58 -23 1519 -3
c1675 -3 1587 -6 1688 59 61 40 105 90 137 159 25 54 26 60 29 296 l3 241 112
-111 c198 -196 391 -333 642 -456 348 -171 651 -241 1040 -241 377 0 688 70
1020 230 165 80 270 144 420 257 316 237 582 564 767 942 l51 104 77 -150
c385 -753 1056 -1248 1855 -1368 165 -25 484 -24 650 0 769 116 1405 567 1814
1286 l71 125 0 -531 c0 -586 0 -588 63 -681 45 -65 119 -119 196 -143 58 -18
92 -20 411 -20 321 0 353 2 414 20 110 34 191 112 238 227 l23 58 5 958 5 958
209 -336 c298 -480 282 -468 664 -466 260 2 296 7 371 56 79 50 108 92 398
562 l118 192 5 -972 5 -972 32 -67 c17 -36 50 -85 73 -108 23 -23 72 -56 108
-73 l67 -32 385 0 385 0 65 31 c83 39 145 101 184 184 l31 65 0 2335 0 2335
-27 57 c-35 76 -104 148 -175 184 l-58 29 -345 0 -345 0 -56 -28 c-31 -15 -76
-49 -101 -75 -24 -26 -166 -240 -315 -477 -149 -236 -379 -603 -512 -814 -133
-211 -252 -399 -265 -417 l-23 -34 -534 848 c-294 466 -551 865 -571 888 -21
23 -66 56 -100 75 l-63 34 -345 0 -345 0 -66 -32 c-79 -39 -140 -102 -177
-181 l-27 -57 -3 -549 -3 -549 -60 109 c-271 489 -638 845 -1114 1079 -225
111 -419 173 -671 217 -106 18 -169 22 -354 22 -239 1 -326 -7 -520 -50 -180
-40 -340 -98 -525 -189 -507 -249 -882 -626 -1156 -1160 l-66 -130 -66 130
c-402 795 -1134 1312 -1976 1395 -96 9 -321 11 -401 3z m355 -1404 c218 -38
422 -147 595 -319 148 -147 240 -297 310 -509 207 -622 -57 -1316 -605 -1593
-316 -160 -651 -157 -957 10 -323 175 -557 507 -634 899 -27 133 -24 386 4
520 57 263 163 469 339 653 202 212 428 324 713 354 46 5 160 -3 235 -15z
m4540 -6 c324 -62 636 -307 800 -629 163 -319 193 -715 80 -1060 -65 -197
-168 -368 -310 -509 -331 -332 -792 -425 -1191 -240 -260 120 -497 373 -614
656 -209 501 -96 1093 280 1470 271 272 601 380 955 312z m-7120 -578 c-31
-120 -62 -312 -75 -460 -39 -469 52 -973 255 -1402 l54 -113 -805 0 -804 0
277 413 c763 1133 1117 1656 1119 1654 1 -1 -8 -43 -21 -92z"/>
<path d="M21460 10130 c0 -33 -3 -40 -20 -40 -13 0 -20 -7 -20 -20 0 -13 -7
-20 -20 -20 -15 0 -20 -7 -20 -25 0 -20 -5 -25 -25 -25 -18 0 -25 -5 -25 -20
0 -17 -7 -20 -40 -20 -33 0 -40 -3 -40 -20 0 -13 -7 -20 -20 -20 -13 0 -20 -7
-20 -20 0 -13 -7 -20 -20 -20 -13 0 -20 7 -20 20 0 13 -7 20 -20 20 -13 0 -20
7 -20 20 0 13 7 20 20 20 13 0 20 7 20 20 0 13 -7 20 -19 20 -16 0 -21 8 -24
43 -3 33 -4 29 -5 -20 -2 -56 -4 -63 -22 -63 -18 0 -20 -7 -20 -60 0 -53 -2
-60 -20 -60 -17 0 -20 -7 -20 -45 0 -38 -3 -45 -20 -45 -18 0 -20 -7 -20 -60
0 -53 -2 -60 -20 -60 -18 0 -20 -7 -20 -65 0 -58 -2 -65 -20 -65 -17 0 -20 -7
-20 -40 0 -36 -2 -40 -25 -40 -24 0 -25 -2 -25 -65 0 -58 -2 -65 -20 -65 -18
0 -20 -7 -20 -60 0 -53 -2 -60 -20 -60 -17 0 -20 -7 -20 -45 0 -38 -3 -45 -20
-45 -18 0 -20 -7 -20 -60 0 -53 -2 -60 -20 -60 -18 0 -20 -7 -20 -65 0 -58 -2
-65 -20 -65 -18 0 -20 -7 -20 -60 0 -57 -1 -60 -25 -60 -22 0 -25 -4 -25 -40
0 -33 -3 -40 -20 -40 -18 0 -20 -7 -20 -65 0 -58 -2 -65 -20 -65 -18 0 -20 -7
-20 -60 0 -53 -2 -60 -20 -60 -17 0 -20 -7 -20 -45 0 -38 -3 -45 -20 -45 -18
0 -20 -7 -20 -60 0 -53 -2 -60 -20 -60 -17 0 -20 -7 -20 -45 0 -41 -2 -45 -25
-45 -22 0 -25 -4 -25 -40 0 -33 -3 -40 -20 -40 -18 0 -20 -7 -20 -60 0 -53 -2
-60 -20 -60 -17 0 -20 -7 -20 -45 0 -38 -3 -45 -20 -45 -17 0 -20 -7 -20 -40
0 -33 -3 -40 -20 -40 -17 0 -20 -7 -20 -40 0 -33 -3 -40 -20 -40 -17 0 -20 -7
-20 -45 0 -41 -2 -45 -25 -45 -22 0 -25 -4 -25 -40 0 -33 -3 -40 -20 -40 -17
0 -20 -7 -20 -40 0 -33 -3 -40 -20 -40 -17 0 -20 -7 -20 -45 0 -38 -3 -45 -20
-45 -17 0 -20 -7 -20 -40 0 -33 -3 -40 -20 -40 -17 0 -20 -7 -20 -40 0 -33 -3
-40 -20 -40 -17 0 -20 -7 -20 -45 0 -41 -2 -45 -25 -45 -18 0 -25 -5 -25 -20
0 -13 -7 -20 -20 -20 -17 0 -20 -7 -20 -40 0 -33 -3 -40 -20 -40 -17 0 -20 -7
-20 -45 0 -38 -3 -45 -20 -45 -13 0 -20 -7 -20 -20 0 -13 -7 -20 -20 -20 -17
0 -20 -7 -20 -40 0 -33 -3 -40 -20 -40 -17 0 -20 -7 -20 -40 0 -36 -2 -40 -25
-40 -20 0 -25 -5 -25 -25 0 -18 -5 -25 -20 -25 -17 0 -20 -7 -20 -40 0 -33 -3
-40 -20 -40 -13 0 -20 -7 -20 -20 0 -13 -7 -20 -20 -20 -17 0 -20 -7 -20 -40
0 -33 -3 -40 -20 -40 -15 0 -20 -7 -20 -25 0 -18 -5 -25 -20 -25 -17 0 -20 -7
-20 -40 0 -36 -2 -40 -25 -40 -18 0 -25 -5 -25 -20 0 -13 -7 -20 -20 -20 -17
0 -20 -7 -20 -40 0 -33 -3 -40 -20 -40 -15 0 -20 -7 -20 -25 0 -18 -5 -25 -20
-25 -13 0 -20 -7 -20 -20 0 -13 -7 -20 -20 -20 -17 0 -20 -7 -20 -40 0 -33 -3
-40 -20 -40 -13 0 -20 -7 -20 -20 0 -15 -7 -20 -25 -20 -18 0 -25 -5 -25 -20
0 -13 -7 -20 -20 -20 -17 0 -20 -7 -20 -45 0 -38 -3 -45 -20 -45 -13 0 -20 -7
-20 -20 0 -13 -7 -20 -20 -20 -13 0 -20 -7 -20 -20 0 -13 -7 -20 -20 -20 -13
0 -20 -7 -20 -20 0 -13 -7 -20 -20 -20 -17 0 -20 -7 -20 -45 0 -41 -2 -45 -25
-45 -18 0 -25 -5 -25 -20 0 -13 -7 -20 -20 -20 -13 0 -20 -7 -20 -20 0 -13 -7
-20 -20 -20 -13 0 -20 -7 -20 -20 0 -13 -7 -20 -20 -20 -13 0 -20 -7 -20 -20
0 -13 -7 -20 -20 -20 -13 0 -20 -7 -20 -20 0 -13 -7 -20 -20 -20 -17 0 -20 -7
-20 -45 0 -41 -2 -45 -25 -45 -18 0 -25 -5 -25 -20 0 -13 -7 -20 -20 -20 -13
0 -20 -7 -20 -20 0 -13 -7 -20 -20 -20 -13 0 -20 -7 -20 -20 0 -13 -7 -20 -20
-20 -13 0 -20 -7 -20 -20 0 -13 -7 -20 -20 -20 -15 0 -20 -7 -20 -25 0 -18 -5
-25 -20 -25 -13 0 -20 -7 -20 -20 0 -15 -7 -20 -25 -20 -18 0 -25 -5 -25 -20
0 -13 -7 -20 -20 -20 -13 0 -20 -7 -20 -20 0 -13 -7 -20 -20 -20 -13 0 -20 -7
-20 -20 0 -13 -7 -20 -20 -20 -13 0 -20 -7 -20 -20 0 -13 -7 -20 -20 -20 -15
0 -20 -7 -20 -25 0 -18 -5 -25 -20 -25 -13 0 -20 -7 -20 -20 0 -15 -7 -20 -25
-20 -18 0 -25 -5 -25 -20 0 -13 -7 -20 -20 -20 -13 0 -20 -7 -20 -20 0 -13 -7
-20 -20 -20 -13 0 -20 -7 -20 -20 0 -13 -7 -20 -20 -20 -13 0 -20 -7 -20 -20
0 -13 -7 -20 -20 -20 -15 0 -20 -7 -20 -25 0 -18 -5 -25 -20 -25 -13 0 -20 -7
-20 -20 0 -15 -7 -20 -25 -20 -18 0 -25 -5 -25 -20 0 -13 -7 -20 -20 -20 -13
0 -20 -7 -20 -20 0 -17 -7 -20 -40 -20 -33 0 -40 -3 -40 -20 0 -13 -7 -20 -20
-20 -13 0 -20 -7 -20 -20 0 -13 -7 -20 -20 -20 -15 0 -20 -7 -20 -25 0 -20 -5
-25 -25 -25 -18 0 -25 -5 -25 -20 0 -13 -7 -20 -20 -20 -13 0 -20 -7 -20 -20
0 -13 -7 -20 -20 -20 -13 0 -20 -7 -20 -20 0 -17 -7 -20 -40 -20 -33 0 -40 -3
-40 -20 0 -13 -7 -20 -20 -20 -13 0 -20 -7 -20 -20 0 -15 -7 -20 -25 -20 -20
0 -25 -5 -25 -25 0 -18 -5 -25 -20 -25 -11 0 -20 -6 -20 -14 0 -9 -15 -17 -40
-21 -30 -5 -40 -11 -40 -26 0 -12 -7 -19 -20 -19 -13 0 -20 -7 -20 -20 0 -13
-7 -20 -20 -20 -13 0 -20 -7 -20 -20 0 -17 -7 -20 -45 -20 -38 0 -45 -3 -45
-20 0 -13 -7 -20 -20 -20 -15 0 -20 -7 -20 -25 0 -22 -4 -25 -40 -25 -33 0
-40 -3 -40 -20 0 -13 -7 -20 -20 -20 -13 0 -20 -7 -20 -20 0 -17 -7 -20 -45
-20 -38 0 -45 -3 -45 -20 0 -13 -7 -20 -20 -20 -13 0 -20 -7 -20 -20 0 -17 -7
-20 -40 -20 -33 0 -40 -3 -40 -20 0 -13 -7 -20 -20 -20 -15 0 -20 -7 -20 -25
0 -23 -4 -25 -45 -25 -38 0 -45 -3 -45 -20 0 -13 -7 -20 -20 -20 -13 0 -20 -7
-20 -20 0 -17 -7 -20 -40 -20 -33 0 -40 -3 -40 -20 0 -13 -7 -20 -20 -20 -13
0 -20 -7 -20 -20 0 -17 -7 -20 -45 -20 -38 0 -45 -3 -45 -20 0 -17 -7 -20 -40
-20 -36 0 -40 -2 -40 -25 0 -22 -4 -25 -40 -25 -33 0 -40 -3 -40 -20 0 -15 -7
-20 -25 -20 -18 0 -25 -5 -25 -20 0 -17 -7 -20 -40 -20 -33 0 -40 -3 -40 -20
0 -17 -7 -20 -40 -20 -33 0 -40 -3 -40 -20 0 -17 -7 -20 -45 -20 -38 0 -45 -3
-45 -20 0 -17 -7 -20 -40 -20 -36 0 -40 -2 -40 -25 0 -22 -4 -25 -40 -25 -33
0 -40 -3 -40 -20 0 -17 -7 -20 -45 -20 -38 0 -45 -3 -45 -20 0 -17 -7 -20 -40
-20 -33 0 -40 -3 -40 -20 0 -17 -7 -20 -40 -20 -33 0 -40 -3 -40 -20 0 -18 -7
-20 -65 -20 -58 0 -65 -2 -65 -20 0 -17 -7 -20 -40 -20 -36 0 -40 -2 -40 -25
0 -22 -4 -25 -40 -25 -33 0 -40 -3 -40 -20 0 -18 -7 -20 -65 -20 -58 0 -65 -2
-65 -20 0 -17 -7 -20 -40 -20 -33 0 -40 -3 -40 -20 0 -18 -7 -20 -65 -20 -58
0 -65 -2 -65 -20 0 -18 -7 -20 -60 -20 -53 0 -60 -2 -60 -20 0 -18 -7 -20 -65
-20 -63 0 -65 -1 -65 -25 0 -22 -4 -25 -40 -25 -33 0 -40 -3 -40 -20 0 -18 -7
-20 -85 -20 -78 0 -85 -2 -85 -20 0 -18 -7 -20 -60 -20 -53 0 -60 -2 -60 -20
0 -18 -7 -20 -65 -20 -58 0 -65 -2 -65 -20 0 -18 -7 -20 -80 -20 -73 0 -80 -2
-80 -20 0 -18 -7 -20 -85 -20 -76 0 -85 -2 -85 -19 0 -23 -35 -31 -136 -31
-67 0 -74 -2 -74 -20 0 -19 -7 -20 -105 -20 -98 0 -105 -1 -105 -20 0 -19 -7
-20 -105 -20 -98 0 -105 -1 -105 -20 0 -19 -7 -20 -145 -20 -138 0 -145 -1
-145 -20 0 -19 -7 -20 -165 -20 -158 0 -165 -1 -165 -20 0 -20 -7 -20 -855
-20 -848 0 -855 0 -855 20 0 19 -7 20 -165 20 -158 0 -165 1 -165 20 0 19 -7
20 -145 20 -138 0 -145 1 -145 20 0 19 -7 20 -105 20 -98 0 -105 1 -105 20 0
19 -7 20 -105 20 -98 0 -105 1 -105 20 0 18 -7 20 -74 20 -101 0 -136 8 -136
31 0 17 -9 19 -85 19 -78 0 -85 2 -85 20 0 18 -7 20 -80 20 -73 0 -80 2 -80
20 0 18 -7 20 -85 20 -78 0 -85 2 -85 20 0 18 -7 20 -60 20 -53 0 -60 2 -60
20 0 18 -7 20 -65 20 -58 0 -65 2 -65 20 0 18 -7 20 -60 20 -57 0 -60 1 -60
25 0 33 -37 35 -43 3 l-4 -23 -2 23 c-1 20 -6 22 -61 22 -53 0 -60 2 -60 20 0
18 -7 20 -65 20 -58 0 -65 2 -65 20 0 18 -7 20 -80 20 -73 0 -80 2 -80 20 0
18 -7 20 -65 20 -58 0 -65 2 -65 20 0 19 -7 20 -165 20 -158 0 -165 -1 -165
-20 0 -13 7 -20 20 -20 13 0 20 -7 20 -20 0 -18 -7 -20 -60 -20 -53 0 -60 -2
-60 -20 0 -18 -7 -20 -65 -20 -58 0 -65 -2 -65 -20 0 -17 -7 -20 -40 -20 -33
0 -40 3 -40 20 0 18 -7 20 -60 20 -53 0 -60 2 -60 20 0 15 -7 20 -25 20 -18 0
-25 -5 -25 -20 0 -13 7 -20 20 -20 13 0 20 -7 20 -20 0 -17 7 -20 45 -20 41 0
45 -2 45 -25 0 -18 5 -25 20 -25 13 0 20 -7 20 -20 0 -17 7 -20 40 -20 33 0
40 -3 40 -20 0 -13 7 -20 20 -20 13 0 20 -7 20 -20 0 -17 7 -20 45 -20 38 0
45 -3 45 -20 0 -13 7 -20 20 -20 13 0 20 -7 20 -20 0 -17 7 -20 40 -20 36 0
40 -2 40 -25 0 -22 4 -25 40 -25 33 0 40 -3 40 -20 0 -17 7 -20 45 -20 38 0
45 -3 45 -20 0 -17 7 -20 40 -20 33 0 40 -3 40 -20 0 -17 7 -20 45 -20 38 0
45 -3 45 -20 0 -18 7 -20 60 -20 53 0 60 -2 60 -20 0 -18 7 -20 60 -20 53 0
60 -2 60 -19 0 -12 -8 -21 -22 -24 -13 -2 7 -5 45 -6 60 -1 67 -3 67 -21 0
-18 7 -20 60 -20 53 0 60 -2 60 -20 0 -18 7 -20 65 -20 58 0 65 -2 65 -20 0
-18 7 -20 60 -20 53 0 60 -2 60 -20 0 -18 7 -20 65 -20 58 0 65 -2 65 -20 0
-18 7 -20 80 -20 79 0 80 0 80 -25 0 -25 1 -25 85 -25 78 0 85 -2 85 -20 0
-19 7 -20 105 -20 98 0 105 -1 105 -20 0 -18 7 -20 85 -20 78 0 85 -2 85 -20
0 -19 7 -20 125 -20 118 0 125 -1 125 -20 0 -19 7 -20 125 -20 118 0 125 -1
125 -20 0 -19 7 -20 145 -20 l145 0 0 -25 0 -25 230 0 c223 0 230 -1 230 -20
0 -20 7 -20 725 -20 718 0 725 0 725 20 0 19 7 20 230 20 l230 0 0 25 0 25
145 0 c138 0 145 1 145 20 0 19 7 20 125 20 118 0 125 1 125 20 0 19 7 20 125
20 118 0 125 1 125 20 0 19 7 20 105 20 98 0 105 1 105 20 0 18 7 20 85 20 78
0 85 2 85 20 0 18 7 20 85 20 84 0 85 0 85 25 0 25 1 25 80 25 73 0 80 2 80
20 0 18 7 20 65 20 58 0 65 2 65 20 0 18 7 20 60 20 53 0 60 2 60 20 0 18 7
20 65 20 58 0 65 2 65 20 0 18 7 20 60 20 53 0 60 2 60 20 0 18 7 20 65 20 63
0 65 1 65 25 0 24 3 25 60 25 53 0 60 2 60 20 0 18 7 20 65 20 58 0 65 2 65
20 0 17 7 20 40 20 33 0 40 3 40 20 0 18 7 20 65 20 58 0 65 2 65 20 0 17 7
20 40 20 33 0 40 3 40 20 0 17 7 20 40 20 36 0 40 3 40 25 0 23 4 25 45 25 38
0 45 3 45 20 0 18 7 20 60 20 53 0 60 2 60 20 0 17 7 20 40 20 33 0 40 3 40
20 0 17 7 20 45 20 38 0 45 3 45 20 0 17 7 20 40 20 33 0 40 3 40 20 0 17 7
20 40 20 36 0 40 3 40 25 0 23 4 25 45 25 38 0 45 3 45 20 0 17 7 20 40 20 33
0 40 3 40 20 0 17 7 20 40 20 33 0 40 3 40 20 0 15 7 20 25 20 18 0 25 5 25
20 0 17 7 20 40 20 33 0 40 3 40 20 0 17 7 20 40 20 36 0 40 3 40 25 0 23 4
25 45 25 38 0 45 3 45 20 0 13 7 20 20 20 13 0 20 7 20 20 0 17 7 20 40 20 33
0 40 3 40 20 0 17 7 20 40 20 33 0 40 3 40 20 0 15 7 20 25 20 18 0 25 5 25
20 0 17 7 20 40 20 36 0 40 3 40 25 0 18 5 25 20 25 13 0 20 7 20 20 0 17 7
20 40 20 33 0 40 3 40 20 0 15 7 20 25 20 18 0 25 5 25 20 0 17 7 20 40 20 33
0 40 3 40 20 0 13 7 20 20 20 13 0 20 7 20 20 0 17 7 20 40 20 36 0 40 3 40
25 0 20 5 25 25 25 18 0 25 5 25 20 0 13 7 20 20 20 13 0 20 7 20 20 0 17 7
20 40 20 33 0 40 3 40 20 0 13 7 20 20 20 13 0 20 7 20 20 0 13 7 20 20 20 13
0 20 7 20 20 0 17 7 20 45 20 41 0 45 2 45 25 0 18 5 25 20 25 13 0 20 7 20
20 0 13 7 20 20 20 13 0 20 7 20 20 0 17 7 20 40 20 33 0 40 3 40 20 0 15 7
20 25 20 18 0 25 5 25 20 0 13 7 20 20 20 13 0 20 7 20 20 0 13 7 20 20 20 15
0 20 7 20 25 0 18 5 25 20 25 13 0 20 7 20 20 0 15 7 20 25 20 18 0 25 5 25
20 0 17 7 20 40 20 33 0 40 3 40 20 0 13 7 20 20 20 13 0 20 7 20 20 0 13 7
20 20 20 13 0 20 7 20 20 0 13 7 20 20 20 15 0 20 7 20 25 0 18 5 25 20 25 13
0 20 7 20 20 0 13 7 20 20 20 13 0 20 7 20 20 0 15 7 20 25 20 18 0 25 5 25
20 0 13 7 20 20 20 13 0 20 7 20 20 0 17 7 20 40 20 33 0 40 3 40 20 0 13 7
20 20 20 15 0 20 7 20 25 0 18 5 25 20 25 13 0 20 7 20 20 0 15 7 20 25 20 18
0 25 5 25 20 0 13 7 20 20 20 13 0 20 7 20 20 0 13 7 20 20 20 13 0 20 7 20
20 0 13 7 20 20 20 13 0 20 7 20 20 0 13 7 20 19 20 15 0 20 10 25 45 5 29 12
45 22 45 8 0 14 9 14 20 0 15 7 20 25 20 18 0 25 5 25 20 0 13 7 20 20 20 13
0 20 7 20 20 0 13 7 20 20 20 13 0 20 7 20 20 0 13 7 20 20 20 15 0 20 7 20
25 0 18 5 25 20 25 13 0 20 7 20 20 0 13 7 20 20 20 13 0 20 7 20 20 0 15 7
20 25 20 23 0 25 4 25 40 0 33 3 40 20 40 13 0 20 7 20 20 0 13 7 20 20 20 15
0 20 7 20 25 0 18 5 25 20 25 13 0 20 7 20 20 0 13 7 20 20 20 13 0 20 7 20
20 0 13 7 20 20 20 13 0 20 7 20 20 0 15 7 20 25 20 23 0 25 4 25 40 0 33 3
40 20 40 15 0 20 7 20 25 0 18 5 25 20 25 13 0 20 7 20 20 0 13 7 20 20 20 17
0 20 7 20 40 0 33 3 40 20 40 13 0 20 7 20 20 0 13 7 20 20 20 13 0 20 7 20
20 0 15 7 20 25 20 23 0 25 4 25 45 0 38 3 45 20 45 13 0 20 7 20 20 0 13 7
20 20 20 13 0 20 7 20 20 0 13 7 20 20 20 17 0 20 7 20 40 0 33 3 40 20 40 15
0 20 7 20 25 0 18 5 25 19 25 15 0 21 10 26 40 5 30 11 40 26 40 12 0 19 7 19
20 0 13 7 20 20 20 17 0 20 7 20 40 0 33 3 40 20 40 15 0 20 7 20 25 0 18 5
25 20 25 17 0 20 7 20 40 0 33 3 40 20 40 13 0 20 7 20 20 0 13 7 20 20 20 17
0 20 7 20 40 0 36 3 40 25 40 20 0 25 5 25 25 0 18 5 25 20 25 17 0 20 7 20
40 0 33 3 40 20 40 17 0 20 7 20 40 0 33 3 40 20 40 13 0 20 7 20 20 0 13 7
20 20 20 17 0 20 7 20 45 0 38 3 45 20 45 17 0 20 7 20 40 0 36 3 40 25 40 23
0 25 4 25 40 0 33 3 40 20 40 15 0 20 7 20 25 0 18 5 25 20 25 17 0 20 7 20
40 0 33 3 40 20 40 17 0 20 7 20 40 0 33 3 40 20 40 17 0 20 7 20 45 0 38 3
45 20 45 17 0 20 7 20 40 0 36 3 40 25 40 23 0 25 4 25 40 0 33 3 40 20 40 17
0 20 7 20 45 0 38 3 45 20 45 18 0 20 7 20 60 0 53 2 60 20 60 17 0 20 7 20
40 0 33 3 40 20 40 17 0 20 7 20 45 0 38 3 45 20 45 17 0 20 7 20 40 0 36 3
40 25 40 24 0 25 2 25 65 0 58 2 65 20 65 17 0 20 7 20 40 0 33 3 40 20 40 18
0 20 7 20 60 0 53 2 60 20 60 17 0 20 7 20 45 0 38 3 45 20 45 18 0 20 7 20
60 0 53 2 60 20 60 18 0 20 7 20 65 0 63 1 65 25 65 24 0 25 3 25 60 0 53 2
60 20 60 18 0 20 7 20 65 0 58 2 65 20 65 18 0 20 7 20 60 0 53 2 60 20 60 18
0 20 7 20 65 0 58 2 65 20 65 18 0 20 7 21 83 1 45 0 92 -1 105 -1 16 4 22 19
22 20 0 21 6 21 80 0 79 0 80 25 80 25 0 25 1 25 85 0 78 2 85 20 85 19 0 20
7 20 125 0 118 1 125 20 125 17 0 20 7 20 45 0 38 -3 45 -20 45 -13 0 -20 7
-20 20 0 13 7 20 20 20 17 0 20 7 20 40 0 33 -3 40 -20 40 -13 0 -20 7 -20 20
0 13 7 20 20 20 17 0 20 7 20 39 0 33 -4 40 -22 44 l-23 4 23 2 c20 1 22 6 22
61 0 53 -2 60 -20 60 -17 0 -20 -7 -20 -40z"/>
<path d="M3750 6150 c0 -13 7 -20 20 -20 13 0 20 7 20 20 0 13 -7 20 -20 20
-13 0 -20 -7 -20 -20z"/>
<path d="M7630 2860 c0 -17 7 -20 40 -20 33 0 40 3 40 20 0 17 -7 20 -40 20
-33 0 -40 -3 -40 -20z"/>
<path d="M7670 2815 c0 -12 18 -15 100 -15 82 0 100 3 100 15 0 12 -18 15
-100 15 -82 0 -100 -3 -100 -15z"/>
<path d="M7880 2815 c0 -8 9 -15 20 -15 11 0 20 7 20 15 0 8 -9 15 -20 15 -11
0 -20 -7 -20 -15z"/>
</g>
</svg>
